<svg width="925" height="179" viewBox="0 0 925 179" fill="none" xmlns="http://www.w3.org/2000/svg">
<path d="M124.923 143.484L114.316 156.153C159.689 169.706 193.276 137.592 189.152 96.0489C187.926 90.4133 187.2 87.4599 185.616 84.2638C178.368 74.9095 173.127 70.7821 163.406 64.7701C162.56 64.2475 162.027 63.336 161.996 62.3428L161.779 55.3967C161.762 54.8699 161.398 54.4181 160.887 54.2902L160.573 54.2117L154.784 67.4434C154.554 67.9693 154.739 68.5856 155.215 68.9061C165.937 76.1235 170.08 82.2326 173.831 96.0489C177.661 128.163 153.207 149.082 124.923 143.484Z" fill="white"/>
<path d="M192.687 59.8096L220.088 147.609H236.881L256.327 90.451L276.362 147.609H293.155L320.556 59.8096H300.816L284.317 118.441L264.871 59.8096H248.372L229.221 118.735L212.722 59.8096H192.687Z" fill="white"/>
<path d="M333.814 59.8096H394.508V76.8981H352.081V94.8704H389.794V111.959H352.081V130.52H394.508V147.609H333.814V59.8096Z" fill="white"/>
<path d="M410.123 59.8096V147.609H427.801V76.8981H454.792C457.216 76.8981 459.688 77.061 461.912 78.0247C465.636 79.638 466.892 82.1077 466.986 87.2101C467.054 92.6913 465.674 95.1117 461.956 96.6877C459.698 97.6449 457.202 97.8167 454.749 97.8167H431.926L463.451 147.609H485.253L462.272 113.727C476.709 111.664 485.253 103.415 485.253 86.0315C484.432 71.5276 478.782 64.395 465.469 60.62C463.363 60.0229 461.168 59.8096 458.979 59.8096H410.123Z" fill="white"/>
<path d="M502.636 147.609V59.8096H520.609L558.027 115.2V59.8096H576.294V147.609H559.205L521.198 91.9241V147.609H502.636Z" fill="white"/>
<path d="M592.793 59.8096V147.609H653.486V130.52H610.765V111.959H648.772V95.165H611.06L610.765 76.8981H653.781V59.8096H592.793Z" fill="white"/>
<path d="M644.942 178.84L733.036 103.709L817.3 0L731.268 76.8981C719.277 87.6898 712.716 93.9965 701.511 106.066L644.942 178.84Z" fill="white"/>
<path d="M666.155 59.8096L699.154 101.647L713.296 85.4423L693.261 59.8096H666.155Z" fill="white"/>
<path d="M719.483 122.86L735.393 108.423L783.712 172.652L743.937 154.385L719.483 122.86Z" fill="white"/>
<path d="M778.703 59.8096V116.865C778.703 119.284 778.907 121.708 779.52 124.048C784.026 141.225 794.363 147.609 812.88 147.609C835.861 147.609 847.352 136.708 849.12 120.503V59.8096H830.853V115.386C830.853 118.781 830.743 122.376 828.825 125.177C826.562 128.48 822.41 130.395 813.175 130.815C805.274 130.815 800.68 128.169 798.058 123.068C797.215 121.427 796.97 119.561 796.97 117.716V59.8096H778.703Z" fill="white"/>
<path fill-rule="evenodd" clip-rule="evenodd" d="M0 147.609H17.9723V117.262H45.0782C53.6224 117.262 69.2747 110.264 69.7123 87.7993C70.1498 65.3344 51.56 60.1043 45.0782 60.1042C38.5964 60.104 0.883886 60.1042 0.883886 60.1042L0 147.609ZM17.9723 101.058V76.3089H39.4871C42.0132 76.3089 44.58 76.6719 46.7659 77.9381C50.9696 80.3734 52.0599 83.3742 52.1493 88.9779C51.9613 94.6853 50.558 97.4313 46.6573 99.5629C44.53 100.725 42.0681 101.058 39.6439 101.058H17.9723Z" fill="white"/>
<path d="M862.083 147.609V130.52H899.796C904.889 128.968 906.856 127.276 906.867 121.092C906.517 116.529 905.35 114.438 902.383 112.973C900.732 112.157 898.858 111.959 897.016 111.959H884.535C881.573 111.959 878.605 111.481 875.907 110.259C864.838 105.246 861.761 99.2072 861.494 86.0315C862.179 72.2219 865.413 66.2068 876.215 61.5852C878.719 60.5142 881.446 60.1042 884.169 60.1042H918.063V76.8981H886.989C885.544 76.8981 884.104 77.3055 883.004 78.2426C881.362 79.6413 880.383 81.0458 879.774 83.0563C879.189 84.9887 879.195 87.0625 879.606 89.0393C880.165 91.726 881.111 93.2156 882.851 94.268C884.051 94.9934 885.488 95.165 886.89 95.165H899.796L902.278 95.3201C903.761 95.4128 905.239 95.6637 906.646 96.1399C919.758 100.575 924.545 107.376 924.545 121.092C924.318 136.19 919.529 142.74 906.843 146.4C905.304 146.844 903.701 147.031 902.1 147.053L862.083 147.609Z" fill="white"/>
<path d="M101.058 148.788C101.549 147.511 102.531 144.781 102.531 144.073V129.931C96.3436 123.449 90.1563 113.432 92.808 96.049C98.9952 72.184 113.137 61.5774 136.413 62.1667L146.725 48.6138C114.316 39.1856 80.4336 63.6398 77.4873 96.049C74.541 128.458 90.1564 138.77 101.058 148.788Z" fill="white"/>
<path d="M100.763 163.814L155.859 96.9328H136.708L159.689 41.248L109.307 108.129H127.869L100.763 163.814Z" fill="white"/>
</svg>
